<?xml version="1.0" encoding="utf-8"?>
<!-- Generator: Adobe Illustrator 19.0.0, SVG Export Plug-In . SVG Version: 6.00 Build 0)  -->
<svg version="1.1" id="Layer_1" xmlns="http://www.w3.org/2000/svg" xmlns:xlink="http://www.w3.org/1999/xlink" x="0px" y="0px"
	 viewBox="0 0 144 144" style="enable-background:new 0 0 144 144;" xml:space="preserve">
<style type="text/css">
	.st0{fill:#BE1E2D;}
</style>
<g>
	<g>
		<path class="st0" d="M77.7,65.4l-0.4,0l0.2-0.3c0.5-1.2,0.8-2.4,0.9-3.9c-0.1,0.2-0.3,0.3-0.4,0.5c-0.3,0.3-0.5,0.6-0.8,0.8
			l-0.5,0.5l0.2-1.5c-0.4-2.2,0.6-4.5,1.5-6.6l0.3-0.8l0.1,0c1-0.4,2-0.3,3.4,0.3l0.7,0.3l-2.5,0.5c-0.4,0-0.6,0.1-0.7,0.2
			c-0.2,0.2-0.2,0.7-0.1,1.1c0,0.3,0,0.6,0,0.9c0,0.2,0,0.5,0,0.7c0,0.6,0,1.2,0.5,1.5c1.3-0.1,2.4,0.9,3.2,1.8
			c1,0.2,2.1-0.2,3.2-0.6c0.6-0.2,1.3-0.5,2-0.6l0.1,0l0.1,0c0.6,0.2,1.2,0.4,1.5,1.1l0,0.1c0,0.1,0,0.2,0,0.2
			c0,0.4,0.1,0.9-0.3,1.4c-1.2,1.3-2.9,1.9-4.8,1.9c-0.9,0-1.9-0.2-2.7-0.5c-0.1,0-0.3-0.1-0.5-0.1c-0.6,0-1.3,0.2-2,0.5
			C79.1,65.2,78.4,65.4,77.7,65.4z M78.8,60l0,0.6c0,1.7-0.3,3.1-0.8,4.3c0.5-0.1,1-0.2,1.5-0.4c0.7-0.2,1.4-0.5,2.1-0.5
			c0.2,0,0.4,0,0.7,0.1c0.8,0.3,1.7,0.5,2.6,0.5c1.8,0,3.3-0.6,4.4-1.8c0.2-0.3,0.2-0.7,0.2-1.1c0-0.1,0-0.2,0-0.2
			c-0.2-0.4-0.5-0.6-1.1-0.7c-0.6,0.1-1.2,0.3-1.8,0.6c-0.9,0.3-1.8,0.7-2.7,0.7c-0.3,0-0.5,0-0.8-0.1l-0.1,0l0-0.1
			c-0.8-0.9-1.8-1.8-3-1.7l-0.1,0L79.8,60c-0.7-0.5-0.7-1.3-0.7-2c0-0.2,0-0.5,0-0.7l0,0l0,0c0-0.2,0-0.5,0-0.8
			c0-0.6-0.1-1.1,0.3-1.5c0.2-0.2,0.6-0.4,1-0.4l0.8-0.1c-0.8-0.2-1.4-0.2-2.1,0l-0.3,0.6c-0.9,2-1.8,4.2-1.5,6.3l0,0l0,0.2
			c0.1-0.1,0.2-0.2,0.3-0.3c0.3-0.3,0.6-0.6,0.9-0.9L78.8,60z"/>
	</g>
	<g>
		<path class="st0" d="M71.8,75L71.8,75c-0.1,0-0.3,0-0.4,0l-0.4,0l1.2-1.9c0.2-0.2,0.4-0.5,0.6-0.8c1.9-2.5,5.1-6.8,9-6.8
			c0.4,0,0.8,0,1.2,0.1l0.6,0.1l-1.2,0.7c-2,1-3.2,2.4-4.5,3.9c-0.7,0.8-1.4,1.7-2.3,2.5c-0.2,0.2-0.4,0.3-0.6,0.5
			C74.1,74.1,73.1,75,71.8,75z M81.8,65.9c-3.7,0-6.8,4.1-8.7,6.6c-0.2,0.3-0.4,0.5-0.6,0.8l-0.8,1.2c1.1,0,2-0.8,2.9-1.5
			c0.2-0.2,0.4-0.3,0.6-0.5c0.8-0.8,1.6-1.6,2.3-2.4c1.3-1.5,2.6-3,4.6-4l0.2-0.1C82.1,66,82,65.9,81.8,65.9z"/>
	</g>
	<g>
		<path class="st0" d="M85.3,81.3c-1.3,0-2.6-0.6-3.8-1.3l-0.4-0.2c-0.6-0.2-1.3-0.3-2-0.3c-0.7,0-1.5,0.1-2.2,0.2
			c-0.8,0.1-1.5,0.2-2.3,0.2l0,0c-0.2,0-0.4,0-0.6,0l-0.2,0l-0.1-0.1c0-0.1-0.1-0.2-0.2-0.3c-0.2-0.3-0.5-0.7-0.3-1.2l0-0.1l0.1,0
			c0.6-0.3,1.1-0.6,1.7-0.9c0.7-0.4,1.5-0.9,2.4-1.2c0.9-0.4,1.9-0.6,3-0.6c1.5,0,3,0.4,4.4,0.7c1,0.3,2.1,0.5,3.1,0.7
			c0.4,0,0.8,0,1.1,0c1.1,0,2.5-0.1,3.9-0.7c1.6-0.8,2.1-2.6,2.4-4.3c0.6-1.5,1.6-2.5,2.6-3.5c0.1-0.1,0.3-0.3,0.4-0.4
			c-1.5,0.3-3.3,1.4-3.3,1.4c-2.4,2-5.9,3.3-9,3.3c-0.6,0-1.2,0-1.7-0.1l-0.7-0.1l0.7-0.3c1.8-0.9,3.7-1.4,5.7-1.6
			c1,0,1.7-0.5,2.5-1c0.3-0.2,0.5-0.3,0.8-0.4c1.6-2.5,2.3-4.7,2.1-6.5c0-0.5,0.2-0.9,0.4-1.3c0.2-0.5,0.4-0.9,0.4-1.4
			c-0.1-1.2-1.4-1.7-2.6-2.1c-0.2-0.1-0.4-0.2-0.6-0.2l-0.5-0.2l0.5-0.2c0.8-0.4,2-1,3.1-1c0.2,0,0.4,0,0.6,0.1c0,0,0,0,0,0
			c1.5,0,2.3,1.2,3.1,2.3c0.1,0.2,0.2,0.3,0.4,0.5l0,0.1c0.5,1.5,1.7,2.3,3,3.2c0.7,0.5,1.4,1,2,1.6c0.2,0.3,0.3,0.5,0.5,0.8
			c1,1.5,2.1,3.2,1.7,5c-0.1,1.5-1.2,2.3-2.2,3c-0.4,0.3-0.8,0.6-1.2,1c-1.3,1.6-3,3.3-5.4,3c-1.2,0.2-2.1,0.9-3.1,1.7
			c-0.6,0.5-1.2,1-2,1.3l-0.1,0c-0.6,0.1-1.2,0.1-1.7,0.1c-1.9,0.1-3.9,0.1-5.4,1.4l-0.1,0.1C85.9,81.3,85.6,81.3,85.3,81.3z
			 M79.2,79c0.8,0,1.5,0.1,2.2,0.4l0.4,0.2c1.2,0.6,2.4,1.2,3.6,1.2c0.2,0,0.5,0,0.7-0.1c1.7-1.4,3.7-1.5,5.7-1.5
			c0.6,0,1.1,0,1.7-0.1c0.7-0.3,1.3-0.8,1.8-1.2c1-0.7,2-1.5,3.3-1.8l0,0l0,0c2.2,0.3,3.8-1.4,5.1-2.9c0.4-0.4,0.8-0.7,1.3-1
			c1-0.7,1.9-1.4,2-2.7c0.4-1.6-0.6-3.2-1.6-4.6c-0.2-0.3-0.3-0.5-0.5-0.7c-0.5-0.5-1.2-1-1.9-1.5c-1.3-0.9-2.6-1.7-3.2-3.4
			c-0.1-0.1-0.2-0.3-0.3-0.5c-0.7-1-1.5-2.1-2.8-2.1c-0.2,0-0.4,0-0.5,0c-0.8,0-1.6,0.3-2.3,0.7c0,0,0.1,0,0.1,0
			c1.2,0.4,2.8,0.9,2.9,2.5c0,0.6-0.2,1.1-0.5,1.6c-0.2,0.4-0.4,0.8-0.4,1.1c0.2,1.9-0.6,4.2-2.2,6.8l0,0.1l-0.1,0
			c-0.3,0.1-0.6,0.3-0.8,0.5c-0.8,0.5-1.7,1-2.8,1c-1.7,0.2-3.3,0.6-4.8,1.2c3.1,0.3,7-1,9.5-3.1c0.1-0.1,2.5-1.6,4.1-1.6l0.6,0
			l-0.3,0.4c-0.3,0.3-0.5,0.6-0.8,0.9c-0.9,1-1.9,2-2.5,3.4c-0.3,1.8-0.9,3.7-2.7,4.6c-1.5,0.6-3,0.7-4.1,0.7c-0.4,0-0.8,0-1.2,0
			c-1.1-0.1-2.2-0.4-3.2-0.7c-1.4-0.4-2.9-0.7-4.3-0.7c-1,0-1.9,0.2-2.8,0.6c-0.8,0.3-1.5,0.7-2.3,1.1c-0.5,0.3-1,0.6-1.6,0.9
			c0,0.2,0.1,0.4,0.3,0.7c0.1,0.1,0.1,0.2,0.2,0.2c0.1,0,0.3,0,0.4,0l0,0c0.8,0,1.5-0.1,2.3-0.2C77.6,79.2,78.4,79,79.2,79z"/>
	</g>
	<g>
		<path class="st0" d="M76.6,74.4l0.7-0.9c1.2-1.5,2.7-2.6,4.3-3.6l0.1,0c0.5-0.2,1.1-0.4,1.6-0.5c0.8-0.3,1.6-0.5,2.4-0.8
			c-1.6-0.1-3.2,0-5.1,0.4l-1,0.2l0.8-0.6c0.1-0.1,2.3-1.8,4.6-2.5c2.7-0.2,4.9-1.7,5.8-3.8c0.1-1.6-1.2-2.2-2.6-2.9
			c-0.4-0.2-0.8-0.4-1.2-0.6l-0.1-0.1c-1.1-1.6-2.4-3.3-4.1-4.7l-0.2-0.2l0.2-0.2c1.5-1.2,3.8-1.3,5.7-0.2c0.8,0.7,1.4,1.6,1.9,2.4
			c0.9,1.4,1.8,2.7,3.5,3.2l0.2,0.1c0.4,0.1,1,0.3,1.2,0.8l0,0.1l0,0.1c0,1.1-0.4,2.3-0.7,3.4c-0.3,0.9-0.6,1.9-0.7,2.8l0,0.1
			l-0.1,0.1c-2.7,2.4-6.8,4.2-11.2,4.9L76.6,74.4z M81.8,70.4c-1.1,0.7-2.3,1.5-3.3,2.5l4.1-2c4.3-0.7,8.3-2.5,10.9-4.8
			c0.1-1,0.4-1.9,0.7-2.8c0.4-1.1,0.7-2.2,0.7-3.2c-0.2-0.3-0.6-0.4-0.9-0.5l-0.2-0.1c-1.9-0.6-2.8-2-3.8-3.4
			c-0.6-0.8-1.1-1.6-1.8-2.3c-0.8-0.5-1.7-0.7-2.6-0.7c-0.9,0-1.7,0.2-2.3,0.7c1.6,1.4,2.9,3.1,3.9,4.6c0.3,0.2,0.7,0.4,1.1,0.6
			c1.4,0.7,2.9,1.5,2.8,3.4l0,0.1c-1,2.3-3.4,3.9-6.2,4.1c-1.4,0.4-2.7,1.2-3.5,1.8c1.9-0.3,3.5-0.3,5.1-0.1l0.8,0.1l-0.7,0.3
			c-1,0.4-2.1,0.8-3.3,1.1C82.8,70.1,82.3,70.2,81.8,70.4z"/>
	</g>
	<g>
		<path class="st0" d="M70.4,74.1l0-0.9c0-0.9,0.1-1.7,0.2-2.6c0.2-2.7,0.4-5.4-0.3-8.1c-0.1-0.6-0.3-1.2-0.4-1.7
			c-0.3-1.2-0.7-2.4-0.3-3.6l0-0.1c1-1.5,0.8-3,0.6-4.6c-0.1-1.2-0.3-2.5,0.1-3.8l0-0.1c1.6-2.3,3.4-3.5,5.3-3.5c0.1,0,0.1,0,0.2,0
			c0.1,0,0.1,0,0.2,0c0.3,0,0.6-0.1,0.9-0.2c0.4-0.1,0.8-0.2,1.1-0.2c0.3,0,0.6,0,0.8,0c0.5,0,0.8,0.1,1.2,0.2l0.1,0.1
			c2.3,2.2,3.6,4.5,4,6.7l0.1,0.8L83.8,52c-0.7-0.7-1.6-0.9-2.5-1.1c-2.2-0.7-5,0-6.8,1.5c-1,1-0.5,1.9,0.1,3
			c0.4,0.8,0.8,1.6,0.8,2.4c-0.4,1.9-0.4,3.8-0.1,5.7c0.1,3.3-1.7,6-3.5,8.6c-0.3,0.4-0.6,0.9-0.9,1.3L70.4,74.1z M70,57.4
			c-0.3,1.1,0,2.2,0.3,3.3c0.2,0.6,0.3,1.2,0.4,1.8c0.7,2.7,0.5,5.5,0.3,8.2c0,0.5-0.1,1.1-0.1,1.6c0.1-0.2,0.3-0.4,0.4-0.6
			c1.7-2.6,3.5-5.2,3.4-8.3c-0.3-1.9-0.3-3.9,0.1-5.8c0-0.7-0.4-1.4-0.8-2.1c-0.6-1.2-1.3-2.4,0-3.6c1.4-1.2,3.4-1.9,5.2-1.9
			c0.7,0,1.4,0.1,2,0.3c0.7,0.2,1.5,0.3,2.2,0.8c-0.6-2.4-2.3-4.4-3.7-5.8c-0.2-0.1-0.5-0.1-0.9-0.1c-0.3,0-0.6,0-0.8,0l0,0l0,0
			c-0.2,0-0.6,0.1-0.9,0.2c-0.4,0.1-0.8,0.3-1.3,0.2c0,0-0.1,0-0.2,0c-1.8,0-3.4,1.1-4.9,3.2c-0.4,1.2-0.2,2.3-0.1,3.6
			C70.9,54.1,71.1,55.8,70,57.4z"/>
	</g>
	<g>
		<path class="st0" d="M83,59.7L83,59.7c-0.9,0-1.6-0.2-2-0.6c-0.3-0.3-0.3-0.6-0.3-0.6l0-0.1c0.2-0.4,0.7-0.5,1.1-0.6
			c0.1,0,0.2,0,0.3,0c-0.1-0.1-0.1-0.2-0.2-0.2c-0.3-0.3-0.6-0.5-0.6-1l0-0.3l0.3,0.1c0.5,0.1,0.9,0.3,1.4,0.5
			c0.2,0.1,0.4,0.2,0.7,0.3l0.1,0l0,0c0.6,0.7,0.7,1.5,0.4,2.2l-0.1,0.1l-0.1,0C83.7,59.6,83.3,59.7,83,59.7z M81.3,58.5
			c0.1,0.2,0.5,0.6,1.8,0.6l0,0c0.2,0,0.5,0,0.8,0c0.2-0.6-0.1-1.2-0.4-1.6c-0.2-0.1-0.4-0.2-0.6-0.3c-0.3-0.1-0.5-0.2-0.8-0.3
			c0.1,0.1,0.1,0.1,0.2,0.2c0.2,0.2,0.4,0.4,0.5,0.6l0.1,0.2l-0.2,0.1c-0.2,0.1-0.4,0.2-0.7,0.2C81.6,58.3,81.4,58.4,81.3,58.5z"/>
	</g>
	<g>
		<path class="st0" d="M84.4,50.1l-0.4-0.6c-0.6-0.7-1-1.6-1.4-2.4c-0.3-0.7-0.7-1.4-1.1-2C81,44.5,80,43.6,79,43.6
			c-0.2,0-0.3,0-0.5,0.1l-0.1,0l-0.1-0.1c-1.4-1.2-3-2.5-4.7-2.5c-0.4,0-0.7,0.1-1.1,0.2c-1,0.9-2.3,1.6-4,2.3c-0.1,0-0.1,0-0.1,0
			c-0.3,0-0.5-0.3-0.7-0.4c-0.1-0.1-0.1-0.2-0.2-0.2l-0.2-0.1l0.1-0.2c0.4-0.9,1-1.8,1.6-2.7l0.1-0.1l2.3-0.4c0.6-0.3,1-0.8,1.4-1.3
			c0.4-0.5,0.8-1,1.3-1.3l0.1,0c0.3-0.1,0.6-0.1,0.9-0.1c1.2,0,2.4,0.4,3.5,0.8c1.2,0.4,2.4,0.8,3.7,0.8c2-1.5,4.4-1.8,6.5-0.7
			l0.1,0.1c0,0,0.1,0.1,0.2,0.1c0.2,0.1,0.5,0.3,0.3,0.7l-0.1,0.1c-3,2.2-5,6.6-4.9,10.8L84.4,50.1z M79,43.1c1.3,0,2.4,1,2.9,1.6
			c0.5,0.7,0.8,1.4,1.2,2.1c0.3,0.6,0.6,1.2,0.9,1.7c0.2-4,2.1-8.2,5-10.3c0,0-0.1,0-0.1-0.1c-0.1-0.1-0.2-0.1-0.2-0.2
			c-1.9-1-4.2-0.7-6,0.7l-0.1,0l-0.1,0c-1.4,0.1-2.7-0.4-4-0.8c-1.2-0.4-2.2-0.8-3.4-0.8c-0.3,0-0.5,0-0.8,0.1
			c-0.5,0.3-0.8,0.7-1.1,1.2c-0.4,0.6-0.9,1.1-1.6,1.5l-0.1,0l-2.1,0.3c-0.6,0.8-1.1,1.6-1.5,2.4c0,0,0.1,0.1,0.1,0.1
			c0.1,0.2,0.2,0.2,0.3,0.2c1.7-0.6,3-1.3,3.9-2.2l0.1-0.1c0.4-0.2,0.9-0.3,1.3-0.3c1.8,0,3.5,1.3,4.9,2.6
			C78.7,43.2,78.8,43.1,79,43.1z"/>
	</g>
	<g>
		<path class="st0" d="M76.1,95l-2.4-1.2c-1.2-0.8-2.6-1.2-4-1.5c-1.5-0.4-3-0.8-4.3-1.8l-0.3-0.3l0.4-0.1c0.2-0.1,0.5-0.2,0.7-0.2
			c1-0.3,2.2-0.7,2.9-1.4c-0.4,0-0.8,0.1-1.2,0.1c-0.5,0.1-1,0.1-1.5,0.1c-0.7,0-1.8-0.1-2.6-1.1c-2.9-2-2.2-4.6-1.4-7.2
			c0.4-1.4,0.9-2.9,0.6-4.2c0.1-1.4-0.7-2.2-1.3-3.1c-0.8-1-1.6-1.9-1.2-3.5c1.2-3,1.9-5.5,1.6-8.1c0.1-1.6-0.4-3.2-1-4.7
			c-0.9-2.6-1.9-5.2,0.4-7.6l0.1-0.1l0.1,0c1.1-0.2,1.8,0.5,2.4,1c0.2,0.2,0.4,0.3,0.5,0.5c-0.1-0.8-0.5-1.5-0.9-2.3
			c-0.2-0.4-0.5-0.9-0.7-1.4l-0.1-0.2l1.1-0.9c1.3-0.6,2.6-1,3.8-1.4c1.1-0.3,2.2-0.7,3.4-1.2l2.2-1.3c1.1-0.2,2,0.4,2.9,1
			c0.3,0.2,0.6,0.4,0.9,0.6l0.2,0.1L77.2,44c-0.2,0.4-0.6,0.5-0.9,0.5l-0.1,0l0,0c-2.1-0.1-4.1,1.4-5.6,2.4
			c-1.6,1.8-1.4,4.2-1.1,6.5c0,0.3,0.1,0.6,0.1,0.9l0,0l0,0c-0.1,0.6-0.3,1.3-0.5,1.9c-0.4,1.4-0.9,2.9-0.6,4.4
			c0.1,0.3,0.2,0.6,0.3,0.9c0.8,2.8,1.6,5.7,0.8,8.5l0,0.2l-0.2,0c-1.5,0.1-3.2,0.2-4.7,0.8c1.7,0.3,3.3,0.8,4.5,1.3l0.2,0.1
			L69,73.8l-0.1,0.1c-1.3,0.5-2.3,1.2-3,2c0.7,0.1,1.4,0.3,2.1,0.5c0.4,0.1,0.8,0.2,1.2,0.3l0.1,0c0.2,0.1,0.4,0.3,0.6,0.4
			c0.5,0.3,1,0.6,1.4,1.1c0.3,0.5,0.7,1,1.1,1.6c1.2,1.8,2.5,3.6,2.7,5.9c-0.1,2.4,0.3,4.9,0.7,7.3c0.1,0.5,0.2,1,0.2,1.4L76.1,95z
			 M66.1,90.3c1.1,0.8,2.4,1.1,3.8,1.5c1.4,0.4,2.8,0.7,4.1,1.6l1.5,0.8c-0.1-0.3-0.1-0.6-0.2-1c-0.4-2.4-0.8-4.9-0.8-7.4
			c-0.2-2.2-1.4-3.9-2.6-5.6c-0.4-0.5-0.7-1-1.1-1.6c-0.3-0.4-0.7-0.6-1.2-0.9c-0.2-0.1-0.4-0.3-0.6-0.4c-0.4-0.1-0.8-0.2-1.2-0.3
			c-0.8-0.2-1.6-0.5-2.4-0.6l-0.4-0.1l0.2-0.3c0.6-1,1.8-1.9,3.3-2.5l0.1-0.6c-1.4-0.5-3.2-1.1-5-1.3L63,71.5l0.6-0.3
			c1.6-1,3.6-1.1,5.4-1.2c0.7-2.7-0.1-5.4-0.8-8.1c-0.1-0.3-0.2-0.6-0.3-1c-0.3-1.6,0.2-3.1,0.6-4.6c0.2-0.6,0.4-1.2,0.5-1.8
			c0-0.3-0.1-0.6-0.1-0.9c-0.2-2.3-0.5-5,1.3-6.9c1.5-1.1,3.6-2.6,5.7-2.6c0.1,0,0.1,0,0.2,0l0.1,0c0.1,0,0.3-0.1,0.4-0.1
			c-0.2-0.1-0.4-0.3-0.7-0.4c-0.8-0.5-1.6-1.1-2.5-1l-2.1,1.2c-1.2,0.5-2.3,0.9-3.4,1.2c-1.2,0.4-2.5,0.8-3.7,1.3l-0.7,0.6
			c0.2,0.4,0.4,0.8,0.6,1.1c0.5,0.9,1,1.9,0.9,3l0,0.4l-0.3-0.2c-0.4-0.2-0.7-0.5-1-0.8c-0.6-0.5-1.1-1.1-1.9-0.9
			c-2,2.1-1.1,4.5-0.2,7c0.6,1.6,1.2,3.2,1,4.9c0.3,2.6-0.5,5.2-1.7,8.3c-0.3,1.3,0.4,2.1,1.1,3c0.7,0.9,1.5,1.9,1.4,3.4
			c0.2,1.4-0.2,2.9-0.6,4.3c-0.7,2.5-1.4,4.9,1.2,6.7l0.1,0c0.5,0.7,1.2,1,2.3,1c0.5,0,1-0.1,1.5-0.1c0.6-0.1,1.2-0.2,1.8-0.1l0.4,0
			l-0.3,0.4c-0.7,1-2.2,1.5-3.4,1.9C66.3,90.2,66.2,90.2,66.1,90.3z"/>
	</g>
	<g>
		<path class="st0" d="M61.2,80.7l-0.1,0c-0.5-0.1-1-0.1-1.5-0.2c-3.9-0.6-7.9-1.1-11.4-3.7c-0.8-0.9-1.7-2.1-2.4-3.4
			c-0.8-3.4-1.8-6-3.1-7.8l0-0.1c-0.1-0.9-0.2-1.9-0.2-2.8c-0.1-1.2-0.1-2.5-0.4-3.7c0-0.9-0.4-1.7-0.7-2.5
			c-0.5-1.2-1.1-2.5-0.4-3.9c0-0.2,0-0.4-0.1-0.6c-0.1-0.4-0.1-0.7,0-1.1l0-0.1l0.1,0c0.8-0.5,1.8-0.8,2.8-0.8c1,0,2,0.2,2.6,0.4
			c0.1,0,0.2,0,0.3,0.1c-0.8-1.1-2.3-1.8-3.6-2.3l-0.2-0.1l0.1-0.2c0.1-0.4,0.3-0.7,0.7-1l0.1,0c0.6-0.1,1.3,0,2,0.2
			c0.2,0.1,0.5,0.1,0.7,0.1c-0.5-0.5-1.2-1-2-1.4c-0.1-0.1-0.4-0.2-0.4-0.5c0-0.3,0.4-0.7,1.1-1.1l0.1,0c0.7-0.2,1.4-0.2,2.1-0.2
			c1.5,0,3,0.3,4.5,0.6c-1-0.9-2.3-1-3.7-1.2c-0.7-0.1-1.4-0.1-2.1-0.3l-0.2,0l0.1-2.3l0.1-0.1c2.2-1,4.8-1.5,8-1.5
			c2.5,0,4.4,0.3,4.4,0.3l0.8,0.3c2.6,1.1,5.2,2.2,6.9,4.1l0.3,0.4l-0.5,0c-1.1,0-2.3,0.4-3.4,0.9c-0.4,0.7-0.6,1.5-0.8,2.2l0,0.1
			l-0.1,0.1c-0.4,0.2-0.7,0.3-1.2,0.3c-0.2,0-0.5,0-0.7,0c-0.3,0-0.7-0.1-1,0c-2.3,0.5-4.5,1.8-5.9,3.4c-1.1,1.8-0.8,3.6-0.5,5.6
			c0.1,0.3,0.1,0.6,0.2,0.9c1.5,3.4,3.2,8,3.3,12.6c0.4-0.5,0.6-1.2,0.7-1.8c-0.1-1.9-0.7-4-1.2-5.9c-0.8-2.9-1.6-5.9-1-8.9
			c0.3-1.9,2.2-2.7,3.7-3.2c0.3-0.1,0.5-0.2,0.8-0.3l0.3-0.1l0,0.4c0,1.1,0.4,2.2,0.8,3.3c0.3,0.9,0.7,1.9,0.8,2.8
			c0.1,0.5,0.1,1.1,0.2,1.6c0.4,3.2,0.8,6.4-1.2,9.6c-1.4,2.4,0,4.7,1.3,6.9c0.4,0.6,0.7,1.2,1,1.7c0.7,1.4,0.4,3.1-0.6,4.5
			L61.2,80.7z M43.1,65.3c1.3,1.9,2.4,4.5,3.2,7.9c0.6,1.2,1.5,2.4,2.3,3.2c3.3,2.5,7.3,3.1,11.1,3.6c0.4,0.1,0.9,0.1,1.3,0.2
			c0.9-1.3,1.1-2.7,0.5-3.9c-0.3-0.5-0.6-1.1-1-1.7c-1.3-2.2-2.9-4.7-1.3-7.4c1.9-3,1.5-6,1.1-9.2c-0.1-0.5-0.1-1.1-0.2-1.6
			c-0.1-0.9-0.5-1.8-0.8-2.7c-0.4-1-0.8-2.1-0.8-3.1c-0.2,0.1-0.3,0.1-0.5,0.2c-1.5,0.6-3.1,1.2-3.4,2.9c-0.6,2.9,0.2,5.8,1,8.7
			c0.5,2,1.1,4,1.2,6c-0.1,0.9-0.3,2-1.3,2.5l-0.4,0.2l0-0.4c0-4.7-1.7-9.4-3.2-13c-0.1-0.4-0.1-0.7-0.2-1c-0.3-2-0.7-4,0.5-5.9
			c1.5-1.8,3.7-3.1,6.2-3.6c0.4-0.1,0.8,0,1.2,0c0.2,0,0.4,0,0.7,0c0.4,0,0.6-0.1,0.9-0.2c0.2-0.7,0.4-1.5,0.9-2.3l0-0.1l0.1,0
			c1-0.5,2.1-0.8,3.1-0.9c-1.6-1.7-3.9-2.6-6.4-3.6l-0.8-0.3h0c0,0-1.8-0.3-4.2-0.3c-3,0-5.6,0.5-7.6,1.4l-0.1,1.6
			c0.6,0.1,1.2,0.2,1.8,0.3c1.7,0.2,3.4,0.3,4.5,1.9l0.4,0.5l-1.3-0.3c-1.5-0.3-3-0.6-4.4-0.6c-0.7,0-1.4,0.1-2,0.2
			c-0.8,0.5-0.9,0.7-0.9,0.7c0,0,0.1,0.1,0.1,0.1c1,0.5,1.9,1.2,2.6,1.9l0.3,0.4l-0.5,0c0,0,0,0,0,0c-0.5,0-1-0.1-1.4-0.2
			c-0.6-0.1-1.2-0.2-1.7-0.2c-0.2,0.1-0.3,0.3-0.4,0.5c1.6,0.6,3.2,1.4,3.9,2.8l0.2,0.3l-0.4,0c-0.2,0-0.5-0.1-0.8-0.2
			c-0.6-0.2-1.5-0.4-2.5-0.4c-0.9,0-1.8,0.2-2.5,0.7c-0.1,0.3,0,0.5,0,0.8c0,0.3,0.1,0.5,0.1,0.8l0,0.1c-0.6,1.3-0.1,2.4,0.4,3.5
			c0.4,0.8,0.7,1.7,0.8,2.6c0.3,1.2,0.3,2.5,0.4,3.8C43,63.4,43,64.4,43.1,65.3z"/>
	</g>
	<g>
		<path class="st0" d="M104,76.6L104,76.6c-0.2,0-0.3,0-0.5,0l-0.2,0l0-0.2c-0.3-1.7,1.3-2.6,2.4-3.2c0.3-0.3,0.6-0.6,1-0.8
			c0.7-0.5,1.3-0.9,1.5-1.8c0.4-2.8-0.9-5.8-3.1-7.4c-1.7-0.9-2.7-2.4-3.8-3.9c-0.9-1.3-1.8-2.6-3.1-3.5c-0.6-0.3-1.3-0.5-2.1-0.5
			c-1.1,0-2.3,0.3-3.4,0.6l-0.3,0.1l-0.1-0.1c-0.8-0.5-1.5-1.3-2.2-2c-1.1-1.2-2.1-2.4-3.9-2.5l-0.1,0L86,51.2
			c-1.4-2.4-1.2-5,0.7-8.5c0.6-1.2,1.5-2.1,2.4-2.9c0.6-0.6,1.2-1.2,1.7-1.9l0,0c0.4-0.4,0.9-0.4,1.3-0.4c0.1,0,0.3,0,0.4,0
			c0.3,0,0.5,0,0.7,0c1.7,0.1,3.1,0.3,4.5,0.6l0.2,0.1l-0.1,0.2c-0.8,3.3,1.1,6.1,3,8.8c0.7,1.1,1.5,2.2,2.1,3.3
			c0.3,1.1,0.4,2.1,0.5,3.1c0.1,1.4,0.2,2.6,0.9,4c2.2,2,4.3,4.1,5.5,7.1l0,0l0,0c0,1,0.1,2.1,0.2,3.1c0.1,1,0.2,2.1,0.2,3.1
			c-0.2,2-1.3,3.8-3,4.5c-0.3,0.1-0.6,0.2-0.9,0.4C105.5,76.3,104.7,76.6,104,76.6z M103.8,76.1c0.1,0,0.1,0,0.2,0l0,0
			c0.7,0,1.4-0.3,2-0.6c0.3-0.1,0.6-0.3,0.9-0.4c1.5-0.6,2.5-2.2,2.7-4.1c0-1-0.1-2.1-0.2-3.1c-0.1-1-0.2-2-0.2-3.1
			c-1.1-2.9-3.2-4.9-5.4-6.9l-0.1-0.1c-0.7-1.4-0.8-2.8-1-4.2c-0.1-1-0.1-2-0.5-3c-0.5-1-1.3-2.1-2-3.2c-1.9-2.7-3.8-5.6-3.1-9
			c-1.3-0.3-2.6-0.5-4.1-0.5c-0.2,0-0.5,0-0.8,0c-0.1,0-0.3,0-0.4,0c-0.4,0-0.7,0.1-0.9,0.3c-0.5,0.7-1.1,1.3-1.7,1.9
			c-0.9,0.9-1.7,1.7-2.3,2.8c-1.7,3.2-2,5.7-0.8,7.9c1.9,0.2,3,1.5,4.1,2.7c0.6,0.7,1.3,1.4,2,1.9l0.1,0c1.2-0.3,2.4-0.7,3.6-0.7
			c0.9,0,1.7,0.2,2.4,0.6c1.4,1,2.4,2.3,3.3,3.7c1,1.5,2,2.9,3.6,3.8c2.4,1.7,3.7,4.9,3.3,7.9c-0.2,1.1-1,1.6-1.7,2.1
			c-0.3,0.2-0.7,0.5-0.9,0.8l-0.1,0C104.8,74.2,103.7,74.9,103.8,76.1z"/>
	</g>
	<g>
		<path class="st0" d="M89.1,107.3l-1.7-0.3c-0.7-0.3-1.3-0.5-2-0.6c-0.3-0.1-0.5,0-0.8,0l0,0l0,0l-2.1-0.4c-3.2-2-7-2.6-10.9-3.1
			c-1.5-0.2-2.8-0.8-4.2-1.4c-1.1-0.5-2.3-1.1-3.5-1.3c-0.6-0.2-1.3-0.2-1.9-0.2c-1.2,0-2.4-0.1-3.5-1l-0.1-0.1
			c-0.2-0.6-0.5-0.6-0.8-0.6c-0.3,0-0.6,0.1-0.9,0.1c-0.4,0.1-0.8,0.2-1.1,0.2c-1.1-0.1-1.7-0.9-2.4-1.7c-0.4-0.5-0.9-1.1-1.5-1.4
			c-1.5-0.4-1.1-1.7-0.8-2.7c0.1-0.4,0.2-0.7,0.2-1c0.4-1.6,1.3-3,2.1-4.3c0.7-1.1,1.4-2.3,1.9-3.6l0.1-0.1c0.1-0.1,0.3-0.3,0.4-0.4
			c0.4-0.5,0.9-1,1.7-0.9c0.1,0,0.3,0,0.5,0c1.3,0.1,2.6,0.1,3.5,1.1l0.1,0.1l0,0.1c0,2.1,1.3,3.9,2.4,5.6c0.2,0.3,0.4,0.6,0.6,0.9
			c1.2,1.8,3.7,2.6,5.9,3.3c0.5,0.2,1,0.3,1.5,0.5c2,1,3.3,2.7,4.5,4.4c0.5,0.7,1,1.3,1.5,1.9c-0.1-0.6-0.3-1.2-0.5-1.8
			c-0.1-0.2-0.2-0.5-0.2-0.7l0,0l0-0.2c0.2-2.5,0.3-5.2-0.8-7.7l0,0l0-0.1c0-0.3,0-0.7,0-1c0.1-2.5,0.2-5-1.3-7.2L74.6,81l0.3-0.1
			c2.6-0.7,4.8-0.3,6.5,1.1c2.5,1.7,3.4,4.9,3.9,7.9c0.3-1,0.6-3.1-0.7-6.8l-0.1-0.3l0.3-0.1c0.4-0.1,0.8,0.1,1.1,0.2l0.2,0.1
			c1.7,1.2,2.5,3.8,3.1,5.9c0,0,0,0.1,0,0.1c0.4-1.2,0.8-3.9-0.7-7.6l-0.1-0.2l0.2-0.1c1.5-0.9,3.4-1.1,5-0.4
			c1.3,0.2,1.9-0.7,2.6-1.6c0.5-0.7,1-1.3,1.7-1.7c0.1,0,1.1-0.4,2.5-0.4c1.7,0,4.1,0.7,5.7,3.8l0,0.1c0.2,1.4-0.9,2.4-1.8,3.2
			c-1.2,0.8-2,2.1-2.7,3.3c-0.6,1-1.3,2.1-2.1,2.9c-1.7,2-2.7,5-3.6,7.4l-0.3,0.8c-0.4,1.4-1.4,2.1-2.3,2.9c-0.8,0.6-1.6,1.2-2,2.2
			l-0.2,0.4l-0.3-0.3c-1.7-2.4-3.6-5-6-6.9l0.1,0.2c0.5,1,1.2,2,1.9,3c1.5,2.2,3.1,4.4,2.5,7L89.1,107.3z M85,105.8
			c0.2,0,0.3,0,0.5,0.1c0.7,0.1,1.4,0.3,2.1,0.6l1.2,0.2c0.4-2.3-1-4.4-2.5-6.4c-0.7-1-1.5-2.1-2-3.1l-1.1-2.1l0.8,0.6
			c2.8,2,4.9,4.8,6.8,7.4c0.5-0.9,1.3-1.5,2-2.1c0.9-0.7,1.8-1.4,2.2-2.6l0.3-0.8c0.9-2.4,1.9-5.5,3.7-7.6c0.8-0.8,1.5-1.8,2.1-2.8
			c0.8-1.3,1.6-2.6,2.9-3.5c0.8-0.7,1.8-1.6,1.6-2.7c-1.4-2.9-3.6-3.5-5.2-3.5c-1.3,0-2.3,0.4-2.3,0.4c-0.6,0.3-1.1,0.9-1.5,1.5
			c-0.7,1-1.5,2-3.1,1.8l-0.1,0c-1.3-0.6-3-0.5-4.4,0.3c2,5.2,0.4,8.3,0.4,8.4l-0.3,0.5L88.9,90c-0.1-0.3-0.2-0.5-0.2-0.8
			c-0.6-2-1.3-4.6-2.9-5.6l-0.1-0.1c-0.2-0.1-0.4-0.2-0.5-0.2c1.8,5.4,0.3,7.5,0.2,7.6L85,91.3L85,90.8c-0.5-3.2-1.3-6.7-3.9-8.4
			c-1.5-1.3-3.5-1.6-5.7-1.1c1.4,2.3,1.3,4.8,1.2,7.2c0,0.3,0,0.7,0,1c1.1,2.6,1,5.3,0.8,7.9l0,0.1c0.1,0.2,0.1,0.4,0.2,0.7
			c0.3,0.8,0.5,1.6,0.5,2.4l0,0.4l-0.7-0.3c-0.6-0.7-1.1-1.4-1.7-2.1c-1.2-1.7-2.4-3.3-4.3-4.2c-0.4-0.1-0.9-0.3-1.4-0.5
			c-2.3-0.7-4.9-1.5-6.2-3.5c-0.2-0.3-0.4-0.6-0.6-0.9c-1.2-1.7-2.5-3.6-2.5-5.8c-0.8-0.8-2-0.9-3.2-0.9c-0.2,0-0.4,0-0.5,0
			c-0.1,0-0.1,0-0.2,0c-0.4,0-0.7,0.4-1.1,0.7c-0.1,0.1-0.2,0.3-0.4,0.4c-0.5,1.3-1.2,2.5-1.9,3.6c-0.8,1.4-1.6,2.6-2,4.1
			c0,0.3-0.1,0.7-0.2,1c-0.3,1.1-0.5,1.8,0.5,2.1c0.8,0.4,1.2,1,1.7,1.5c0.6,0.7,1.1,1.4,2,1.5l0.1,0c0.3,0,0.6-0.1,0.9-0.1
			c0.3-0.1,0.7-0.2,1-0.2c0.6,0,1,0.3,1.3,0.9c0.9,0.8,2,0.8,3.1,0.9c0.7,0,1.4,0,2.1,0.3c1.3,0.3,2.4,0.8,3.6,1.4
			c1.4,0.6,2.6,1.2,4,1.4c4,0.5,7.8,1.1,11,3.2l2,0.4C84.7,105.8,84.9,105.8,85,105.8z"/>
	</g>
	<g>
		<path class="st0" d="M91.1,103.8l-0.2-0.1l0,0.1l-0.1-0.1l0-0.1l0,0c0,0,0-0.1,0.1-0.1l0.5-1l0,1.2L91.1,103.8z"/>
	</g>
	<g>
		<path class="st0" d="M83.5,106.2c-0.1,0-0.3-0.1-0.4-0.1C83.2,106.1,83.3,106.2,83.5,106.2z"/>
	</g>
	<g>
		<path class="st0" d="M48.7,90c-0.3,0-0.6,0-0.8-0.1c-2.3-0.8-4.1-2.6-5.2-5.2l-0.2-0.4l0.4,0c1.1,0,2.2-0.2,3.2-0.6
			c-0.1,0-0.3-0.1-0.4-0.1c-0.6-0.1-1.2-0.3-1.6-0.3l-1-0.1l1-0.3c0.2-0.1,0.5-0.1,0.7-0.2c0.6-0.2,1.2-0.3,1.7-0.6
			c-1.3-0.6-2.7-0.6-4-0.7c-1.9-0.1-3.8-0.2-5.4-1.6c-0.3-0.3-0.7-0.6-1-0.8c-0.7-0.6-1.5-1.2-1.8-2.1l0-0.1l0-0.1
			c0.1-0.3,0.1-0.7,0.2-1c0.1-0.6,0.2-1.3,0.4-2c0.1-0.4,0.1-0.9,0.1-1.3c0-0.6,0-1.2,0.1-1.8l0-0.1c0.9-1.1,2.2-1.7,3.4-2.4
			c0.4-0.2,0.8-0.4,1.2-0.6c-0.6,0-1.2,0.1-1.7,0.2c-0.8,0.1-1.6,0.2-2.3,0.1l-0.1,0l-0.1,0c-1-0.8-0.7-2-0.5-3
			c0.1-0.3,0.1-0.5,0.2-0.7c-0.1-0.4-0.3-0.7-0.5-1.1c-0.5-1-1-2-0.7-3.2l0.1-0.1c1.6-1.9,5.3-4,5.5-4.1l0.2-0.1l0.1,0.2
			c1.5,2.3,2.3,4.4,2.4,6.4l0,0l0,0c-0.2,1.1-0.8,4.9,1.8,6.9l0.1,0.1c0.5,1,0.7,2.1,1,3.1c0.4,1.6,0.8,3,1.8,4.3
			c0.7,0.4,1.4,0.9,2.1,1.3c2,1.2,4,2.5,6.2,3.2l0.4,0.1l-0.3,0.3c-1.1,1-1.8,2.5-2.5,4.1c-0.5,1.2-1,2.4-1.7,3.4
			C50.6,89.6,49.8,90,48.7,90z M43.3,84.9c1.1,2.2,2.8,3.9,4.8,4.6c0.2,0,0.4,0.1,0.7,0.1c0.9,0,1.6-0.3,2-0.8
			c0.7-1,1.2-2.1,1.7-3.3c0.6-1.4,1.3-2.9,2.3-4c-2.2-0.7-4.1-1.9-6-3.1c-0.7-0.5-1.4-0.9-2.1-1.3l-0.1-0.1
			c-1.1-1.4-1.5-2.9-1.9-4.5c-0.3-1-0.5-2-1-3c-2.7-2.2-2.2-6.1-1.9-7.4c-0.1-1.8-0.9-3.8-2.2-5.9c-0.8,0.5-3.7,2.2-5.1,3.8
			c-0.2,1,0.2,1.9,0.7,2.8c0.2,0.4,0.4,0.8,0.5,1.2l0,0.1l0,0.1c0,0.3-0.1,0.6-0.2,0.8c-0.2,0.9-0.5,1.8,0.3,2.4
			c0.6,0.1,1.4,0,2.1-0.1c0.9-0.1,1.8-0.3,2.6-0.1l0.6,0.1l-0.5,0.3c-0.6,0.4-1.2,0.7-1.9,1c-1.2,0.6-2.4,1.2-3.2,2.2
			c-0.1,0.5-0.1,1.1-0.1,1.6c0,0.5,0,1-0.1,1.5c-0.2,0.7-0.3,1.3-0.4,2c-0.1,0.3-0.1,0.6-0.2,1c0.3,0.8,1,1.3,1.7,1.8
			c0.3,0.3,0.7,0.5,1,0.9c1.5,1.3,3.3,1.4,5.1,1.4c1.5,0.1,3.1,0.1,4.6,0.9l0.3,0.2l-0.3,0.2c-0.6,0.4-1.3,0.6-2,0.8
			c0.2,0,0.4,0.1,0.6,0.2c0.4,0.1,0.8,0.2,1.1,0.2l0.7,0.1L47,83.9C45.8,84.5,44.5,84.9,43.3,84.9z"/>
	</g>
	<g>
		<path class="st0" d="M69.2,40.1l2.2-0.4c1.2-0.6,1.6-2,2.7-2.7c2.8-0.5,5.3,1.7,8.2,1.5c1.8-1.4,4.2-1.8,6.3-0.7
			c0.1,0.2,0.6,0.3,0.4,0.5c-3.3,2.4-5.1,7.1-5,11c-1-1.3-1.5-3.1-2.4-4.5c-0.8-0.9-2-1.8-3.3-1.5c-1.5-1.3-3.8-3.3-6.1-2.4
			c-1.1,1-2.5,1.7-4,2.3c-0.4,0-0.5-0.4-0.8-0.6C68.1,41.8,68.6,40.9,69.2,40.1z M70.5,62.5c-0.2-1.7-1.3-3.5-0.7-5.2
			c1.8-2.8-0.2-5.7,0.8-8.5c1.2-1.7,2.9-3.5,5.3-3.4c0.7,0.1,1.6-0.5,2.2-0.4c0.7,0,1.4-0.1,1.9,0.1c1.8,1.8,3.5,4.1,4,6.6
			c-0.7-0.7-1.7-0.9-2.7-1.1c-2.3-0.7-5.1,0-7,1.5c-1.9,1.8,0.9,3.5,0.8,5.6c-0.4,1.9-0.4,3.8-0.1,5.7c0.1,3.8-2.4,6.8-4.3,9.8
			C70.8,69.7,71.5,66.1,70.5,62.5z M81.6,56.6c0.7,0.2,1.3,0.5,2,0.8c0.5,0.6,0.7,1.3,0.4,2c-3,0.3-3-0.9-3-0.9
			c0.3-0.5,1-0.4,1.5-0.6C82.3,57.4,81.6,57.1,81.6,56.6z M80.3,54.9c-1.6,0-0.9,1.6-1.1,2.5c0.1,0.8-0.1,1.9,0.7,2.5
			c1.3-0.1,2.3,0.9,3.2,1.8c1.8,0.4,3.6-0.8,5.3-1.2c0.6,0.2,1.1,0.3,1.3,0.9c0,0.5,0.2,1-0.2,1.5c-1.9,1.9-4.8,2.3-7.2,1.4
			c-1.5-0.4-3.2,0.9-4.6,0.9c0.7-1.5,0.9-3.1,0.9-4.6c-0.6,0.5-1.1,1.2-1.6,1.7l0.1-0.8c-0.4-2.4,0.9-4.9,1.8-7.1
			c1.1-0.4,2.1-0.2,3.2,0.3L80.3,54.9z M72.4,73.1c1.8-2.4,5.8-8.4,10.6-7.3l-0.7,0.4c-3.1,1.6-4.4,4.2-6.8,6.4
			c-1.1,0.9-2.3,2.2-4,2L72.4,73.1z M73.5,78.4c1.4-0.6,2.6-1.5,4-2c3.5-1.5,6.9,0.4,10.4,0.8c1.7,0.1,3.4,0.1,5.2-0.7
			c1.7-0.8,2.3-2.8,2.6-4.5c0.8-1.8,2.2-3,3.3-4.3c-1.6,0-4,1.5-4,1.5c-2.8,2.3-7.2,3.7-10.5,3.1c1.8-0.9,3.7-1.4,5.6-1.6
			c1.4,0,2.4-0.9,3.5-1.5c1.2-2,2.4-4.4,2.2-6.7c0.1-0.8,0.9-1.8,0.9-2.7c-0.1-1.6-2.1-2-3.4-2.5c1.1-0.6,2.3-1.1,3.5-0.9
			c1.6,0,2.5,1.5,3.3,2.7c0.8,2.5,3.5,3.2,5.1,4.8c1,1.6,2.6,3.5,2.1,5.5c-0.2,2.1-2.1,2.6-3.3,3.9c-1.3,1.6-2.9,3.3-5.3,3
			c-2.2,0.4-3.3,2.1-5.1,3c-2.4,0.2-5.2-0.2-7.3,1.6c-1.7,0.4-3.3-0.5-4.9-1.3c-2.5-0.9-4.8,0.3-7.2,0.1
			C73.9,79.4,73.3,78.9,73.5,78.4z M93.9,59.3c0.4,0.1,1,0.3,1.3,0.7c0.1,2-1.3,4.1-1.4,6.2c-2.9,2.6-7.1,4.2-11.1,4.9l-5.2,2.6
			c1.1-1.4,2.6-2.5,4.2-3.5c1.6-0.5,3.4-1,4.9-1.7c-2-0.3-4-0.2-6.1,0.3c0,0,2.2-1.7,4.5-2.5c2.5-0.2,5-1.6,6-4
			c0.1-2.3-2.3-2.8-3.9-3.8c-1.2-1.7-2.5-3.4-4.2-4.8c1.5-1.2,3.7-1.2,5.4-0.1C90.4,55.4,91,58.4,93.9,59.3z M71.2,43.5l2.1-1.2
			c1.4-0.2,2.5,1,3.6,1.6c-0.2,0.3-0.6,0.4-0.9,0.4c-2.1-0.1-4.2,1.4-5.7,2.5c-1.9,2.2-1.4,5.1-1.2,7.7c-0.4,2.1-1.6,4.2-1.2,6.3
			c0.8,3.1,1.9,6.3,1.1,9.4c-1.8,0.1-3.8,0.2-5.5,1.2c1.7,0.2,3.5,0.8,5.2,1.4l-0.1,0.9c-1.2,0.5-2.6,1.3-3.3,2.4
			c1.2,0.2,2.4,0.6,3.6,0.9c0.7,0.5,1.5,0.8,2,1.4c1.4,2.2,3.4,4.4,3.7,7.3c-0.1,2.9,0.5,5.8,1,8.7l-1.9-1c-2.7-1.7-5.9-1.5-8.3-3.3
			c1.4-0.5,3.2-1,4-2.1c-1.9-0.1-4.2,1-5.7-0.8c-4.4-3,0-7.5-0.7-11.2c0.1-2.9-3.2-3.7-2.6-6.5c1.1-2.7,1.9-5.4,1.6-8.2
			c0.4-4.1-4.2-8.4-0.7-12.1c1.4-0.3,2.2,1.2,3.1,1.7c0.2-1.5-1-2.8-1.5-4.2l0.9-0.8C66.5,45,68.9,44.6,71.2,43.5z M41.1,50.8
			c2.5-1.6,5.5-0.1,6.1-0.2c-0.7-1.5-2.6-2.3-4-2.8c0.1-0.4,0.3-0.6,0.6-0.8c1.1-0.2,2.2,0.4,3.2,0.3c-0.6-0.8-1.6-1.4-2.5-1.9
			c-0.1-0.1-0.7-0.4,0.8-1.2c2.4-0.6,4.8,0,7.2,0.5c-1.6-2.1-4.3-1.5-6.4-2.1l0.1-1.9c5.3-2.4,12.2-1.1,12.2-1.1
			c2.9,1.2,5.7,2.3,7.5,4.4c-1.2,0-2.4,0.4-3.5,0.9c-0.5,0.7-0.7,1.5-0.9,2.3c-0.9,0.5-1.9,0.1-2.9,0.2c-2.3,0.5-4.6,1.8-6,3.5
			c-1.4,2.2-0.7,4.5-0.3,6.7c1.8,4.3,3.3,8.7,3.3,13.1c0.8-0.5,1.1-1.5,1.1-2.3c-0.3-4.9-3.2-9.9-2.2-14.8c0.4-2.2,2.8-2.7,4.3-3.4
			c0,2,1.4,4.1,1.6,6.1c0.4,3.7,1.3,7.4-0.9,11c-1.8,3.2,0.9,6.1,2.3,8.9c0.7,1.5,0.3,3-0.6,4.3c-4.2-0.7-8.9-1-12.7-3.9
			c-0.9-1-1.7-2.1-2.3-3.3c-0.6-2.7-1.6-5.6-3.2-7.9c-0.3-2.2-0.2-4.4-0.6-6.5c-0.1-2.3-2.2-4-1.1-6.3C41.2,52,40.9,51.4,41.1,50.8z
			 M47.9,89.7c-2.4-0.8-4.1-2.8-5.1-5c1.3,0.1,2.8-0.3,4-0.9c-0.8-0.2-2-0.5-2.7-0.6c0.9-0.3,2-0.5,2.8-1.1c-3.2-1.7-6.9,0-9.8-2.4
			c-1-1-2.3-1.6-2.8-2.8c0.2-1,0.3-2,0.6-3c0.2-1-0.1-2.1,0.2-3.1c1.2-1.6,3.5-2.2,5.2-3.3c-1.6-0.3-3.2,0.5-4.8,0.2
			c-1.2-1-0.4-2.4-0.2-3.5c-0.5-1.4-1.6-2.7-1.2-4.2c1.6-1.9,5.4-4,5.4-4c1.2,1.9,2.2,4.1,2.4,6.3c-0.5,2.5-0.2,5.5,1.9,7.2
			c1.1,2.6,1.2,5.3,2.9,7.5c2.7,1.5,5.3,3.6,8.4,4.5c-2,1.8-2.6,5.2-4.2,7.6C50.3,89.7,48.9,89.9,47.9,89.7z M83.1,106.1
			c0.1,0,0.3,0.1,0.4,0.1C83.3,106.2,83.2,106.1,83.1,106.1z M105.8,81.1c0.2,1.3-0.9,2.2-1.7,2.9c-2.2,1.5-3,4.4-4.9,6.2
			c-1.9,2.3-3,5.8-3.9,8.3c-0.7,2.5-3.4,2.9-4.4,5.1c0,0,0,0,0,0l-0.1,0.1c0,0,0-0.1,0-0.1c-2-2.8-4.2-5.7-7-7.7l0.6,1.2
			c1.5,3.2,5.3,6.2,4.4,9.9l-1.5-0.3c-0.6-0.3-1.3-0.5-2-0.6c-0.3-0.1-0.6,0-0.9,0l-2.1-0.4c-3.3-2.1-7.3-2.7-11-3.1
			c-2.7-0.3-5-2.2-7.7-2.8c-1.6-0.6-3.8,0.2-5.3-1.2c-0.5-1.5-2-0.4-3.1-0.5c-1.8-0.2-2.2-2.3-3.8-3c-1.7-0.5-0.5-2.3-0.4-3.5
			c0.8-2.9,2.9-5,3.9-7.9c0.5-0.5,1-1.4,1.8-1.2c1.4,0.1,2.9,0,3.9,1.1c0,2.5,1.8,4.7,3.1,6.6c1.5,2.3,5,3,7.5,3.8
			c2.8,1.4,4.1,4.2,6,6.4l0.3,0.1c0-1-0.4-2-0.7-3.1c0.2-2.7,0.4-5.3-0.8-8c0.1-2.8,0.4-5.8-1.4-8.4c2.1-0.6,4.4-0.5,6.2,1.1
			c2.7,1.8,3.5,5.5,4,8.6c0,0,1.6-2.1-0.4-7.7c0.4-0.1,0.7,0.1,1.1,0.3c1.8,1.3,2.5,4.4,3.2,6.6c0,0,1.7-3.2-0.5-8.4
			c1.4-0.8,3.2-1.1,4.8-0.4c2.4,0.4,2.7-2.5,4.5-3.3C98,77.8,103.2,75.7,105.8,81.1z M107,75.3c-1.1,0.4-2.3,1.2-3.5,1
			c-0.2-1.5,1.2-2.4,2.3-3c0.8-0.9,2.3-1.3,2.6-2.8c0.4-2.8-0.9-6-3.2-7.6c-3.2-1.7-3.9-5.5-6.9-7.4c-1.9-1-4-0.4-6,0.2
			c-2.1-1.3-3.2-4.3-6.2-4.6c-1.5-2.6-0.8-5.5,0.7-8.2c1-2,2.8-3.1,4-4.8c0.7-0.6,1.5-0.2,2.3-0.3c1.5,0.1,2.9,0.2,4.4,0.6
			c-1.2,4.8,3.1,8.5,5.1,12.3c0.8,2.4,0.1,4.7,1.4,7.1c2.2,2,4.3,4.1,5.5,7c0,2.1,0.4,4.1,0.3,6.2C109.7,72.8,108.7,74.6,107,75.3z"
			/>
		<path class="st0" d="M85,105.8c0.2,0,0.3,0,0.5,0.1c0.7,0.1,1.4,0.3,2.1,0.6l1.2,0.2c0.4-2.3-1-4.4-2.5-6.4c-0.7-1-1.5-2.1-2-3.1
			l-1.1-2.1l0.8,0.6c2.8,2,4.9,4.8,6.8,7.4c0.5-0.9,1.3-1.5,2-2.1c0.9-0.7,1.8-1.4,2.2-2.6l0.3-0.8c0.9-2.4,1.9-5.5,3.7-7.6
			c0.8-0.8,1.5-1.8,2.1-2.8c0.8-1.3,1.6-2.6,2.9-3.5c0.8-0.7,1.8-1.6,1.6-2.7c-1.4-2.9-3.6-3.5-5.2-3.5c-1.3,0-2.3,0.4-2.3,0.4
			c-0.6,0.3-1.1,0.9-1.5,1.5c-0.7,0.9-1.3,1.8-2.6,1.8l0,0c-0.1,0-0.3,0-0.4,0l-0.1,0c-1.3-0.6-3-0.5-4.4,0.3c2,5.2,0.4,8.3,0.4,8.4
			l-0.3,0.5L88.9,90c-0.1-0.3-0.2-0.5-0.2-0.8c-0.6-2-1.3-4.6-2.9-5.6l-0.1-0.1c-0.2-0.1-0.4-0.2-0.5-0.2c1.8,5.4,0.3,7.5,0.2,7.6
			L85,91.3L85,90.8c-0.5-3.2-1.3-6.7-3.9-8.4c-1.5-1.3-3.5-1.6-5.7-1.1c1.4,2.3,1.3,4.8,1.2,7.2c0,0.3,0,0.7,0,1
			c1.1,2.6,1,5.3,0.8,7.9l0,0.1c0.1,0.2,0.1,0.4,0.2,0.7c0.3,0.8,0.5,1.6,0.5,2.4l0,0.4l-0.7-0.3c-0.6-0.7-1.1-1.4-1.7-2.1
			c-1.2-1.7-2.4-3.3-4.3-4.2c-0.4-0.1-0.9-0.3-1.4-0.5c-2.3-0.7-4.9-1.5-6.2-3.5c-0.2-0.3-0.4-0.6-0.6-0.9c-1.2-1.7-2.5-3.6-2.5-5.8
			c-0.8-0.8-2-0.9-3.2-0.9c-0.2,0-0.4,0-0.5,0c-0.1,0-0.1,0-0.2,0c-0.4,0-0.7,0.4-1.1,0.7c-0.1,0.1-0.2,0.3-0.4,0.4
			c-0.5,1.3-1.2,2.5-1.9,3.6c-0.8,1.4-1.6,2.6-2,4.1c0,0.3-0.1,0.7-0.2,1c-0.3,1.1-0.5,1.8,0.5,2.1c0.8,0.4,1.2,1,1.7,1.5
			c0.6,0.7,1.1,1.4,2,1.5l0.1,0c0.3,0,0.6-0.1,0.9-0.1c0.3-0.1,0.7-0.2,1-0.2c0.6,0,1,0.3,1.3,0.9c0.9,0.8,2,0.8,3.1,0.9
			c0.7,0,1.4,0,2.1,0.3c1.3,0.3,2.4,0.8,3.6,1.4c1.4,0.6,2.6,1.2,4,1.4c4,0.5,7.8,1.1,11,3.2l2,0.4C84.7,105.8,84.9,105.8,85,105.8z
			 M76.1,95l-2.4-1.2c-1.2-0.8-2.6-1.2-4-1.5c-1.5-0.4-3-0.8-4.3-1.8l-0.3-0.3l0.4-0.1c0.2-0.1,0.5-0.2,0.7-0.2
			c1-0.3,2.2-0.7,2.9-1.4c-0.4,0-0.8,0.1-1.2,0.1c-0.5,0.1-1,0.1-1.5,0.1c-0.7,0-1.8-0.1-2.6-1.1c-2.9-2-2.2-4.6-1.4-7.2
			c0.4-1.4,0.9-2.9,0.6-4.2c0.1-1.4-0.7-2.2-1.3-3.1c-0.8-1-1.6-1.9-1.2-3.5c1.2-3,1.9-5.5,1.6-8.1c0.1-1.6-0.4-3.2-1-4.7
			c-0.9-2.6-1.9-5.2,0.4-7.6l0.1-0.1l0.1,0c1.1-0.2,1.8,0.5,2.4,1c0.2,0.2,0.4,0.3,0.5,0.5c-0.1-0.8-0.5-1.5-0.9-2.3
			c-0.2-0.4-0.5-0.9-0.7-1.4l-0.1-0.2l1.1-0.9c1.3-0.6,2.6-1,3.8-1.4c1.1-0.3,2.2-0.7,3.4-1.2l2.2-1.3c1.1-0.2,2,0.4,2.9,1
			c0.3,0.2,0.6,0.4,0.9,0.6l0.2,0.1L77.2,44c-0.2,0.4-0.6,0.5-0.9,0.5l-0.1,0l0,0c-2.1-0.1-4.1,1.4-5.6,2.4
			c-1.6,1.8-1.4,4.2-1.1,6.5c0,0.3,0.1,0.6,0.1,0.9l0,0l0,0c-0.1,0.6-0.3,1.3-0.5,1.9c-0.4,1.4-0.9,2.9-0.6,4.4
			c0.1,0.3,0.2,0.6,0.3,0.9c0.8,2.8,1.6,5.7,0.8,8.5l0,0.2l-0.2,0c-1.5,0.1-3.2,0.2-4.7,0.8c1.7,0.3,3.3,0.8,4.5,1.3l0.2,0.1
			L69,73.8l-0.1,0.1c-1.3,0.5-2.3,1.2-3,2c0.7,0.1,1.4,0.3,2.1,0.5c0.4,0.1,0.8,0.2,1.2,0.3l0.1,0c0.2,0.1,0.4,0.3,0.6,0.4
			c0.5,0.3,1,0.6,1.4,1.1c0.3,0.5,0.7,1,1.1,1.6c1.2,1.8,2.5,3.6,2.7,5.9c-0.1,2.4,0.3,4.9,0.7,7.3c0.1,0.5,0.2,1,0.2,1.4L76.1,95z
			 M66.1,90.3c1.1,0.8,2.4,1.1,3.8,1.5c1.4,0.4,2.8,0.7,4.1,1.6l1.5,0.8c-0.1-0.3-0.1-0.6-0.2-1c-0.4-2.4-0.8-4.9-0.8-7.4
			c-0.2-2.2-1.4-3.9-2.6-5.6c-0.4-0.5-0.7-1-1.1-1.6c-0.3-0.4-0.7-0.6-1.2-0.9c-0.2-0.1-0.4-0.3-0.6-0.4c-0.4-0.1-0.8-0.2-1.2-0.3
			c-0.8-0.2-1.6-0.5-2.4-0.6l-0.4-0.1l0.2-0.3c0.6-1,1.8-1.9,3.3-2.5l0.1-0.6c-1.4-0.5-3.2-1.1-5-1.3L63,71.5l0.6-0.3
			c1.6-1,3.6-1.1,5.4-1.2c0.7-2.7-0.1-5.4-0.8-8.1c-0.1-0.3-0.2-0.6-0.3-1c-0.3-1.6,0.2-3.1,0.6-4.6c0.2-0.6,0.4-1.2,0.5-1.8
			c0-0.3-0.1-0.6-0.1-0.9c-0.2-2.3-0.5-5,1.3-6.9c1.6-1.1,3.7-2.6,5.9-2.6l0.1,0c0.1,0,0.3-0.1,0.4-0.1c-0.2-0.1-0.4-0.3-0.7-0.4
			c-0.8-0.5-1.6-1.1-2.5-1l-2.1,1.2c-1.2,0.5-2.3,0.9-3.4,1.2c-1.2,0.4-2.5,0.8-3.7,1.3l-0.7,0.6c0.2,0.4,0.4,0.8,0.6,1.1
			c0.5,0.9,1,1.9,0.9,3l0,0.4l-0.3-0.2c-0.4-0.2-0.7-0.5-1-0.8c-0.6-0.5-1.1-1.1-1.9-0.9c-2,2.1-1.1,4.5-0.2,7
			c0.6,1.6,1.2,3.2,1,4.9c0.3,2.6-0.5,5.2-1.7,8.3c-0.3,1.3,0.4,2.1,1.1,3c0.7,0.9,1.5,1.9,1.4,3.4c0.2,1.4-0.2,2.9-0.6,4.3
			c-0.7,2.5-1.4,4.9,1.2,6.7l0.1,0c0.5,0.7,1.2,1,2.3,1c0.5,0,1-0.1,1.5-0.1c0.6-0.1,1.2-0.2,1.8-0.1l0.4,0l-0.3,0.4
			c-0.7,1-2.2,1.5-3.4,1.9C66.3,90.2,66.2,90.2,66.1,90.3z M48.7,90c-0.3,0-0.6,0-0.8-0.1c-2.3-0.8-4.1-2.6-5.2-5.2l-0.2-0.4l0.4,0
			c1.1,0,2.2-0.2,3.2-0.6c-0.1,0-0.3-0.1-0.4-0.1c-0.6-0.1-1.2-0.3-1.6-0.3l-1-0.1l1-0.3c0.2-0.1,0.5-0.1,0.7-0.2
			c0.6-0.2,1.2-0.3,1.7-0.6c-1.3-0.6-2.7-0.6-4-0.7c-1.9-0.1-3.8-0.2-5.4-1.6c-0.3-0.3-0.7-0.6-1-0.8c-0.7-0.6-1.5-1.2-1.8-2.1
			l0-0.1l0-0.1c0.1-0.3,0.1-0.7,0.2-1c0.1-0.6,0.2-1.3,0.4-2c0.1-0.4,0.1-0.9,0.1-1.3c0-0.6,0-1.2,0.1-1.8l0-0.1
			c0.9-1.1,2.2-1.7,3.4-2.4c0.4-0.2,0.8-0.4,1.2-0.6c-0.6,0-1.2,0.1-1.7,0.2c-0.8,0.1-1.6,0.2-2.3,0.1l-0.1,0l-0.1,0
			c-1-0.8-0.7-2-0.5-3c0.1-0.3,0.1-0.5,0.2-0.7c-0.1-0.4-0.3-0.7-0.5-1.1c-0.5-1-1-2-0.7-3.2l0.1-0.1c1.6-1.9,5.3-4,5.5-4.1l0.2-0.1
			l0.1,0.2c1.5,2.3,2.3,4.4,2.4,6.4l0,0l0,0c-0.2,1.1-0.8,4.9,1.8,6.9l0.1,0.1c0.5,1,0.7,2.1,1,3.1c0.4,1.6,0.8,3,1.8,4.3
			c0.7,0.4,1.4,0.9,2.1,1.3c2,1.2,4,2.5,6.2,3.2l0.4,0.1l-0.3,0.3c-1.1,1-1.8,2.5-2.5,4.1c-0.5,1.2-1,2.4-1.7,3.4
			C50.6,89.6,49.8,90,48.7,90z M43.3,84.9c1.1,2.2,2.8,3.9,4.8,4.6c0.2,0,0.4,0.1,0.7,0.1c0.9,0,1.6-0.3,2-0.8
			c0.7-1,1.2-2.1,1.7-3.3c0.6-1.4,1.3-2.9,2.3-4c-2.2-0.7-4.1-1.9-6-3.1c-0.7-0.5-1.4-0.9-2.1-1.3l-0.1-0.1
			c-1.1-1.4-1.5-2.9-1.9-4.5c-0.3-1-0.5-2-1-3c-2.7-2.2-2.2-6.1-1.9-7.4c-0.1-1.8-0.9-3.8-2.2-5.9c-0.8,0.5-3.7,2.2-5.1,3.8
			c-0.2,1,0.2,1.9,0.7,2.8c0.2,0.4,0.4,0.8,0.5,1.2l0,0.1l0,0.1c0,0.3-0.1,0.6-0.2,0.8c-0.2,0.9-0.5,1.8,0.3,2.4
			c0.6,0.1,1.4,0,2.1-0.1c0.9-0.1,1.8-0.3,2.6-0.1l0.6,0.1l-0.5,0.3c-0.6,0.4-1.2,0.7-1.9,1c-1.2,0.6-2.4,1.2-3.2,2.2
			c-0.1,0.5-0.1,1.1-0.1,1.6c0,0.5,0,1-0.1,1.5c-0.2,0.7-0.3,1.3-0.4,2c-0.1,0.3-0.1,0.6-0.2,1c0.3,0.8,1,1.3,1.7,1.8
			c0.3,0.3,0.7,0.5,1,0.9c1.5,1.3,3.3,1.4,5.1,1.4c1.5,0.1,3.1,0.1,4.6,0.9l0.3,0.2l-0.3,0.2c-0.6,0.4-1.3,0.6-2,0.8
			c0.2,0,0.4,0.1,0.6,0.2c0.4,0.1,0.8,0.2,1.1,0.2l0.7,0.1L47,83.9C45.8,84.5,44.5,84.9,43.3,84.9z M85.3,81.3
			c-1.3,0-2.6-0.6-3.8-1.3l-0.4-0.2c-0.6-0.2-1.3-0.3-2-0.3c-0.7,0-1.5,0.1-2.2,0.2C76,79.9,75,80,74,79.9l-0.2,0l-0.1-0.1
			c0-0.1-0.1-0.2-0.2-0.3c-0.2-0.3-0.5-0.7-0.3-1.2l0-0.1l0.1,0c0.6-0.3,1.1-0.6,1.7-0.9c0.7-0.4,1.5-0.9,2.4-1.2
			c0.9-0.4,1.9-0.6,3-0.6c1.5,0,3,0.4,4.4,0.7c1,0.3,2.1,0.5,3.1,0.7c0.4,0,0.8,0,1.1,0c1.1,0,2.5-0.1,3.9-0.7
			c1.6-0.8,2.1-2.6,2.4-4.3c0.6-1.5,1.6-2.5,2.6-3.5c0.1-0.1,0.3-0.3,0.4-0.4c-1.5,0.3-3.3,1.4-3.3,1.4c-2.4,2-5.9,3.3-9,3.3
			c-0.6,0-1.2,0-1.7-0.1l-0.7-0.1l0.7-0.3c1.8-0.9,3.7-1.4,5.7-1.6c1,0,1.7-0.5,2.5-1c0.3-0.2,0.5-0.3,0.8-0.4
			c1.6-2.5,2.3-4.7,2.1-6.5c0-0.5,0.2-0.9,0.4-1.3c0.2-0.5,0.4-0.9,0.4-1.4c-0.1-1.2-1.4-1.7-2.6-2.1c-0.2-0.1-0.4-0.2-0.6-0.2
			l-0.5-0.2l0.5-0.2c0.8-0.4,2-1,3.1-1c0.2,0,0.4,0,0.6,0.1c0,0,0,0,0,0c1.5,0,2.3,1.2,3.1,2.3c0.1,0.2,0.2,0.3,0.4,0.5l0,0.1
			c0.5,1.5,1.7,2.3,3,3.2c0.7,0.5,1.4,1,2,1.6c0.2,0.3,0.3,0.5,0.5,0.8c1,1.5,2.1,3.2,1.7,5c-0.1,1.5-1.2,2.3-2.2,3
			c-0.4,0.3-0.8,0.6-1.2,1c-1.3,1.6-3,3.3-5.4,3c-1.2,0.2-2.1,0.9-3.1,1.7c-0.6,0.5-1.2,1-2,1.3l-0.1,0c-0.6,0.1-1.2,0.1-1.7,0.1
			c-1.9,0.1-3.9,0.1-5.4,1.4l-0.1,0.1C85.9,81.3,85.6,81.3,85.3,81.3z M79.2,79c0.8,0,1.5,0.1,2.2,0.4l0.4,0.2
			c1.2,0.6,2.4,1.2,3.6,1.2c0.2,0,0.5,0,0.7-0.1c1.7-1.4,3.7-1.5,5.7-1.5c0.6,0,1.1,0,1.7-0.1c0.7-0.3,1.3-0.8,1.8-1.2
			c1-0.7,2-1.5,3.3-1.8l0,0l0,0c2.2,0.3,3.8-1.4,5.1-2.9c0.4-0.4,0.8-0.7,1.3-1c1-0.7,1.9-1.4,2-2.7c0.4-1.6-0.6-3.2-1.6-4.6
			c-0.2-0.3-0.3-0.5-0.5-0.7c-0.5-0.5-1.2-1-1.9-1.5c-1.3-0.9-2.6-1.7-3.2-3.4c-0.1-0.1-0.2-0.3-0.3-0.5c-0.7-1-1.5-2.1-2.8-2.1
			c-0.2,0-0.4,0-0.5,0c-0.8,0-1.6,0.3-2.3,0.7c0,0,0.1,0,0.1,0c1.2,0.4,2.8,0.9,2.9,2.5c0,0.6-0.2,1.1-0.5,1.6
			c-0.2,0.4-0.4,0.8-0.4,1.1c0.2,1.9-0.6,4.2-2.2,6.8l0,0.1l-0.1,0c-0.3,0.1-0.6,0.3-0.8,0.5c-0.8,0.5-1.7,1-2.8,1
			c-1.7,0.2-3.3,0.6-4.8,1.2c3.1,0.3,7-1,9.5-3.1c0.1-0.1,2.5-1.6,4.1-1.6l0.6,0l-0.3,0.4c-0.3,0.3-0.5,0.6-0.8,0.9
			c-0.9,1-1.9,2-2.5,3.4c-0.3,1.8-0.9,3.7-2.7,4.6c-1.5,0.6-3,0.7-4.1,0.7c-0.4,0-0.8,0-1.2,0c-1.1-0.1-2.2-0.4-3.2-0.7
			c-1.4-0.4-2.9-0.7-4.3-0.7c-1,0-1.9,0.2-2.8,0.6c-0.8,0.3-1.5,0.7-2.3,1.1c-0.5,0.3-1,0.6-1.6,0.9c0,0.2,0.1,0.4,0.3,0.7
			c0.1,0.1,0.1,0.2,0.2,0.2c0.9,0.1,1.8-0.1,2.7-0.2C77.6,79.2,78.4,79,79.2,79z M61.2,80.7l-0.1,0c-0.5-0.1-1-0.1-1.5-0.2
			c-3.9-0.6-7.9-1.1-11.4-3.7c-0.8-0.9-1.7-2.1-2.4-3.4c-0.8-3.4-1.8-6-3.1-7.8l0-0.1c-0.1-0.9-0.2-1.9-0.2-2.8
			c-0.1-1.2-0.1-2.5-0.4-3.7c0-0.9-0.4-1.7-0.7-2.5c-0.5-1.2-1.1-2.5-0.4-3.9c0-0.2,0-0.4-0.1-0.6c-0.1-0.4-0.1-0.7,0-1.1l0-0.1
			l0.1,0c0.8-0.5,1.8-0.8,2.8-0.8c1,0,2,0.2,2.6,0.4c0.1,0,0.2,0,0.3,0.1c-0.8-1.1-2.3-1.8-3.6-2.3l-0.2-0.1l0.1-0.2
			c0.1-0.4,0.3-0.7,0.7-1l0.1,0c0.6-0.1,1.3,0,2,0.2c0.2,0.1,0.5,0.1,0.7,0.1c-0.5-0.5-1.2-1-2-1.4c-0.1-0.1-0.4-0.2-0.4-0.5
			c0-0.3,0.4-0.7,1.1-1.1l0.1,0c0.7-0.2,1.4-0.2,2.1-0.2c1.5,0,3,0.3,4.5,0.6c-1-0.9-2.3-1-3.7-1.2c-0.7-0.1-1.4-0.1-2.1-0.3l-0.2,0
			l0.1-2.3l0.1-0.1c2.2-1,4.8-1.5,8-1.5c2.5,0,4.4,0.3,4.4,0.3l0.8,0.3c2.6,1.1,5.2,2.2,6.9,4.1l0.3,0.4l-0.5,0
			c-1.1,0-2.3,0.4-3.4,0.9c-0.4,0.7-0.6,1.5-0.8,2.2l0,0.1l-0.1,0.1c-0.4,0.2-0.7,0.3-1.2,0.3c-0.2,0-0.5,0-0.7,0
			c-0.3,0-0.7-0.1-1,0c-2.3,0.5-4.5,1.8-5.9,3.4c-1.1,1.8-0.8,3.6-0.5,5.6c0.1,0.3,0.1,0.6,0.2,0.9c1.5,3.4,3.2,8,3.3,12.6
			c0.4-0.5,0.6-1.2,0.7-1.8c-0.1-1.9-0.7-4-1.2-5.9c-0.8-2.9-1.6-5.9-1-8.9c0.3-1.9,2.2-2.7,3.7-3.2c0.3-0.1,0.5-0.2,0.8-0.3
			l0.3-0.1l0,0.4c0,1.1,0.4,2.2,0.8,3.3c0.3,0.9,0.7,1.9,0.8,2.8c0.1,0.5,0.1,1.1,0.2,1.6c0.4,3.2,0.8,6.4-1.2,9.6
			c-1.4,2.4,0,4.7,1.3,6.9c0.4,0.6,0.7,1.2,1,1.7c0.7,1.4,0.4,3.1-0.6,4.5L61.2,80.7z M43.1,65.3c1.3,1.9,2.4,4.5,3.2,7.9
			c0.6,1.2,1.5,2.4,2.3,3.2c3.3,2.5,7.3,3.1,11.1,3.6c0.4,0.1,0.9,0.1,1.3,0.2c0.9-1.3,1.1-2.7,0.5-3.9c-0.3-0.5-0.6-1.1-1-1.7
			c-1.3-2.2-2.9-4.7-1.3-7.4c1.9-3,1.5-6,1.1-9.2c-0.1-0.5-0.1-1.1-0.2-1.6c-0.1-0.9-0.5-1.8-0.8-2.7c-0.4-1-0.8-2.1-0.8-3.1
			c-0.2,0.1-0.3,0.1-0.5,0.2c-1.5,0.6-3.1,1.2-3.4,2.9c-0.6,2.9,0.2,5.8,1,8.7c0.5,2,1.1,4,1.2,6c-0.1,0.9-0.3,2-1.3,2.5l-0.4,0.2
			l0-0.4c0-4.7-1.7-9.4-3.2-13c-0.1-0.4-0.1-0.7-0.2-1c-0.3-2-0.7-4,0.5-5.9c1.5-1.8,3.7-3.1,6.2-3.6c0.4-0.1,0.8,0,1.2,0
			c0.2,0,0.4,0,0.7,0c0.4,0,0.6-0.1,0.9-0.2c0.2-0.7,0.4-1.5,0.9-2.3l0-0.1l0.1,0c1-0.5,2.1-0.8,3.1-0.9c-1.6-1.7-3.9-2.6-6.4-3.6
			l-0.8-0.3h0c0,0-1.8-0.3-4.2-0.3c-2.9,0-5.6,0.5-7.6,1.4l-0.1,1.6c0.6,0.1,1.2,0.2,1.8,0.3c1.7,0.2,3.4,0.3,4.5,1.9l0.4,0.5
			l-1.3-0.3c-1.5-0.3-3-0.6-4.4-0.6c-0.7,0-1.4,0.1-2,0.2c-0.8,0.5-0.9,0.7-0.9,0.7c0,0,0.1,0.1,0.1,0.1c1,0.5,1.9,1.2,2.6,1.9
			l0.3,0.4l-0.5,0c0,0,0,0,0,0c-0.5,0-1-0.1-1.4-0.2c-0.6-0.1-1.2-0.2-1.7-0.2c-0.2,0.1-0.3,0.3-0.4,0.5c1.6,0.6,3.2,1.4,3.9,2.8
			l0.2,0.3l-0.4,0c-0.2,0-0.5-0.1-0.8-0.2c-0.6-0.2-1.5-0.4-2.5-0.4c-0.9,0-1.8,0.2-2.5,0.7c-0.1,0.3,0,0.5,0,0.8
			c0,0.3,0.1,0.5,0.1,0.8l0,0.1c-0.6,1.3-0.1,2.4,0.4,3.5c0.4,0.8,0.7,1.7,0.8,2.6c0.3,1.2,0.3,2.5,0.4,3.8
			C43,63.4,43,64.4,43.1,65.3z M104,76.6c-0.2,0-0.3,0-0.5,0l-0.2,0l0-0.2c-0.3-1.7,1.3-2.6,2.4-3.2c0.3-0.3,0.6-0.6,1-0.8
			c0.7-0.5,1.3-0.9,1.5-1.8c0.4-2.8-0.9-5.8-3.1-7.4c-1.7-0.9-2.7-2.4-3.8-3.9c-0.9-1.3-1.8-2.6-3.1-3.5c-0.6-0.3-1.3-0.5-2.1-0.5
			c-1.1,0-2.3,0.3-3.4,0.6l-0.3,0.1l-0.1-0.1c-0.8-0.5-1.5-1.3-2.2-2c-1.1-1.2-2.1-2.4-3.9-2.5l-0.1,0L86,51.2
			c-1.4-2.4-1.2-5,0.7-8.5c0.6-1.2,1.5-2.1,2.4-2.9c0.6-0.6,1.2-1.2,1.7-1.9l0,0c0.4-0.4,0.9-0.4,1.3-0.4c0.1,0,0.3,0,0.4,0
			c0.3,0,0.5,0,0.7,0c1.7,0.1,3.1,0.3,4.5,0.6l0.2,0.1l-0.1,0.2c-0.8,3.3,1.1,6.1,3,8.8c0.7,1.1,1.5,2.2,2.1,3.3
			c0.3,1.1,0.4,2.1,0.5,3.1c0.1,1.4,0.2,2.6,0.9,4c2.2,2,4.3,4.1,5.5,7.1l0,0l0,0c0,1,0.1,2.1,0.2,3.1c0.1,1,0.2,2.1,0.2,3.1
			c-0.2,2-1.3,3.8-3,4.5c-0.3,0.1-0.6,0.2-0.9,0.4C105.5,76.3,104.7,76.6,104,76.6z M103.8,76.1c0.7,0.1,1.5-0.3,2.2-0.6
			c0.3-0.1,0.6-0.3,0.9-0.4c1.5-0.6,2.5-2.2,2.7-4.1c0-1-0.1-2.1-0.2-3.1c-0.1-1-0.2-2-0.2-3.1c-1.1-2.9-3.2-4.9-5.4-6.9l-0.1-0.1
			c-0.7-1.4-0.8-2.8-1-4.2c-0.1-1-0.1-2-0.5-3c-0.5-1-1.3-2.1-2-3.2c-1.9-2.7-3.8-5.6-3.1-9c-1.3-0.3-2.6-0.5-4.1-0.5
			c-0.2,0-0.5,0-0.8,0c-0.1,0-0.3,0-0.4,0c-0.4,0-0.7,0.1-0.9,0.3c-0.5,0.7-1.1,1.3-1.7,1.9c-0.9,0.9-1.7,1.7-2.3,2.8
			c-1.7,3.2-2,5.7-0.8,7.9c1.9,0.2,3,1.5,4.1,2.7c0.6,0.7,1.3,1.4,2,1.9l0.1,0c1.2-0.3,2.4-0.7,3.6-0.7c0.9,0,1.7,0.2,2.4,0.6
			c1.4,1,2.4,2.3,3.3,3.7c1,1.5,2,2.9,3.6,3.8c2.4,1.7,3.7,4.9,3.3,7.9c-0.2,1.1-1,1.6-1.7,2.1c-0.3,0.2-0.7,0.5-0.9,0.8l-0.1,0
			C104.8,74.2,103.7,74.9,103.8,76.1z M71.8,75c-0.1,0-0.3,0-0.4,0l-0.4,0l1.2-1.9c0.2-0.2,0.4-0.5,0.6-0.8c1.9-2.5,5.1-6.8,9-6.8
			c0.4,0,0.8,0,1.2,0.1l0.6,0.1l-1.2,0.7c-2,1-3.2,2.4-4.5,3.9c-0.7,0.8-1.4,1.7-2.3,2.5c-0.2,0.2-0.4,0.3-0.6,0.5
			C74.1,74.1,73.1,75,71.8,75z M81.8,65.9c-3.7,0-6.8,4.1-8.7,6.6c-0.2,0.3-0.4,0.5-0.6,0.8l-0.8,1.2c1.1,0,2-0.8,2.9-1.5
			c0.2-0.2,0.4-0.3,0.6-0.5c0.8-0.8,1.6-1.6,2.3-2.4c1.3-1.5,2.6-3,4.6-4l0.2-0.1C82.1,66,82,65.9,81.8,65.9z M76.6,74.4l0.7-0.9
			c1.2-1.5,2.7-2.6,4.3-3.6l0.1,0c0.5-0.2,1.1-0.4,1.6-0.5c0.8-0.3,1.6-0.5,2.4-0.8c-1.6-0.1-3.2,0-5.1,0.4l-1,0.2l0.8-0.6
			c0.1-0.1,2.3-1.8,4.6-2.5c2.7-0.2,4.9-1.7,5.8-3.8c0.1-1.6-1.2-2.2-2.6-2.9c-0.4-0.2-0.8-0.4-1.2-0.6l-0.1-0.1
			c-1.1-1.6-2.4-3.3-4.1-4.7l-0.2-0.2l0.2-0.2c1.5-1.2,3.8-1.3,5.7-0.2c0.8,0.7,1.4,1.6,1.9,2.4c0.9,1.4,1.8,2.7,3.5,3.2l0.2,0.1
			c0.4,0.1,1,0.3,1.2,0.8l0,0.1l0,0.1c0,1.1-0.4,2.3-0.7,3.4c-0.3,0.9-0.6,1.9-0.7,2.8l0,0.1l-0.1,0.1c-2.7,2.4-6.8,4.2-11.2,4.9
			L76.6,74.4z M81.8,70.4c-1.1,0.7-2.3,1.5-3.3,2.5l4.1-2c4.3-0.7,8.3-2.5,10.9-4.8c0.1-1,0.4-1.9,0.7-2.8c0.4-1.1,0.7-2.2,0.7-3.2
			c-0.2-0.3-0.6-0.4-0.9-0.5l-0.2-0.1c-1.9-0.6-2.8-2-3.8-3.4c-0.6-0.8-1.1-1.6-1.8-2.3c-0.8-0.5-1.7-0.7-2.6-0.7
			c-0.9,0-1.7,0.2-2.3,0.7c1.6,1.4,2.9,3.1,3.9,4.6c0.3,0.2,0.7,0.4,1.1,0.6c1.4,0.7,2.9,1.5,2.8,3.4l0,0.1c-1,2.3-3.4,3.9-6.2,4.1
			c-1.4,0.4-2.7,1.2-3.5,1.8c1.9-0.3,3.5-0.3,5.1-0.1l0.8,0.1l-0.7,0.3c-1,0.4-2.1,0.8-3.3,1.1C82.8,70.1,82.3,70.2,81.8,70.4z
			 M70.4,74.1l0-0.9c0-0.9,0.1-1.7,0.2-2.6c0.2-2.7,0.4-5.4-0.3-8.1c-0.1-0.6-0.3-1.2-0.4-1.7c-0.3-1.2-0.7-2.4-0.3-3.6l0-0.1
			c1-1.5,0.8-3,0.6-4.6c-0.1-1.2-0.3-2.5,0.1-3.8l0-0.1c1.6-2.3,3.4-3.5,5.3-3.5c0.1,0,0.1,0,0.2,0c0.1,0,0.1,0,0.2,0
			c0.3,0,0.6-0.1,0.9-0.2c0.4-0.1,0.8-0.2,1.1-0.2c0.3,0,0.6,0,0.8,0c0.5,0,0.8,0.1,1.2,0.2l0.1,0.1c2.3,2.2,3.6,4.5,4,6.7l0.1,0.8
			L83.8,52c-0.7-0.7-1.6-0.9-2.5-1.1c-2.2-0.7-5,0-6.8,1.5c-1,1-0.5,1.9,0.1,3c0.4,0.8,0.8,1.6,0.8,2.4c-0.4,1.9-0.4,3.8-0.1,5.7
			c0.1,3.3-1.7,6-3.5,8.6c-0.3,0.4-0.6,0.9-0.9,1.3L70.4,74.1z M70,57.4c-0.3,1.1,0,2.2,0.3,3.3c0.2,0.6,0.3,1.2,0.4,1.8
			c0.7,2.7,0.5,5.5,0.3,8.2c0,0.5-0.1,1.1-0.1,1.6c0.1-0.2,0.3-0.4,0.4-0.6c1.7-2.6,3.5-5.2,3.4-8.3c-0.3-1.9-0.3-3.9,0.1-5.8
			c0-0.7-0.4-1.4-0.8-2.1c-0.6-1.2-1.3-2.4,0-3.6c1.4-1.2,3.4-1.9,5.2-1.9c0.7,0,1.4,0.1,2,0.3c0.7,0.2,1.5,0.3,2.2,0.8
			c-0.6-2.4-2.3-4.4-3.7-5.8c-0.2-0.1-0.5-0.1-0.9-0.1c-0.3,0-0.6,0-0.8,0l0,0l0,0c-0.2,0-0.6,0.1-0.9,0.2c-0.4,0.1-0.8,0.3-1.3,0.2
			c0,0-0.1,0-0.2,0c-1.8,0-3.4,1.1-4.9,3.2c-0.4,1.2-0.2,2.3-0.1,3.6C70.9,54.1,71.1,55.8,70,57.4z M77.4,65.4l0.1-0.3
			c0.5-1.2,0.8-2.4,0.9-3.9c-0.1,0.2-0.3,0.3-0.4,0.5c-0.3,0.3-0.5,0.6-0.8,0.8l-0.5,0.5l0.2-1.5c-0.4-2.2,0.6-4.5,1.5-6.6l0.3-0.8
			l0.1,0c1-0.4,2-0.3,3.4,0.3l0.7,0.3l-2.5,0.5c-0.4,0-0.6,0.1-0.7,0.2c-0.2,0.2-0.2,0.7-0.1,1.1c0,0.3,0,0.6,0,0.9
			c0,0.2,0,0.5,0,0.7c0,0.6,0,1.2,0.5,1.5c1.3-0.1,2.4,0.9,3.2,1.8c1,0.2,2.1-0.2,3.2-0.6c0.6-0.2,1.3-0.5,2-0.6l0.1,0l0.1,0
			c0.6,0.2,1.2,0.4,1.5,1.1l0,0.1c0,0.1,0,0.2,0,0.2c0,0.4,0.1,0.9-0.3,1.4c-1.2,1.3-2.9,1.9-4.8,1.9c-0.9,0-1.9-0.2-2.7-0.5
			c-0.1,0-0.3-0.1-0.5-0.1c-0.6,0-1.3,0.2-2,0.5c-0.7,0.2-1.4,0.5-2,0.5H77.4z M78.8,60l0,0.6c0,1.7-0.3,3.1-0.8,4.3
			c0.5-0.1,1-0.2,1.5-0.4c0.7-0.2,1.4-0.5,2.1-0.5c0.2,0,0.4,0,0.7,0.1c0.8,0.3,1.7,0.5,2.6,0.5c1.8,0,3.3-0.6,4.4-1.8
			c0.2-0.3,0.2-0.7,0.2-1.1c0-0.1,0-0.2,0-0.2c-0.2-0.4-0.5-0.6-1.1-0.7c-0.6,0.1-1.2,0.3-1.8,0.6c-0.9,0.3-1.8,0.7-2.7,0.7
			c-0.3,0-0.5,0-0.8-0.1l-0.1,0l0-0.1c-0.8-0.9-1.8-1.8-3-1.7l-0.1,0L79.8,60c-0.7-0.5-0.7-1.3-0.7-2c0-0.2,0-0.5,0-0.7l0,0l0,0
			c0-0.2,0-0.5,0-0.8c0-0.6-0.1-1.1,0.3-1.5c0.2-0.2,0.6-0.4,1-0.4l0.8-0.1c-0.8-0.2-1.4-0.2-2.1,0l-0.3,0.6c-0.9,2-1.8,4.2-1.5,6.3
			l0,0l0,0.2c0.1-0.1,0.2-0.2,0.3-0.3c0.3-0.3,0.6-0.6,0.9-0.9L78.8,60z M83,59.7c-0.9,0-1.6-0.2-2-0.6c-0.3-0.3-0.3-0.6-0.3-0.6
			l0-0.1c0.2-0.4,0.7-0.5,1.1-0.6c0.1,0,0.2,0,0.3,0c-0.1-0.1-0.1-0.2-0.2-0.2c-0.3-0.3-0.6-0.5-0.6-1l0-0.3l0.3,0.1
			c0.5,0.1,0.9,0.3,1.4,0.5c0.2,0.1,0.4,0.2,0.7,0.3l0.1,0l0,0c0.6,0.7,0.7,1.5,0.4,2.2l-0.1,0.1l-0.1,0
			C83.7,59.6,83.3,59.7,83,59.7z M81.3,58.5c0.1,0.2,0.5,0.6,1.8,0.6c0.2,0,0.5,0,0.8,0c0.2-0.6-0.1-1.2-0.4-1.6
			c-0.2-0.1-0.4-0.2-0.6-0.3c-0.3-0.1-0.5-0.2-0.8-0.3c0.1,0.1,0.1,0.1,0.2,0.2c0.2,0.2,0.4,0.4,0.5,0.6l0.1,0.2l-0.2,0.1
			c-0.2,0.1-0.4,0.2-0.7,0.2C81.6,58.3,81.4,58.4,81.3,58.5z M84.4,50.1l-0.4-0.6c-0.6-0.7-1-1.6-1.4-2.4c-0.3-0.7-0.7-1.4-1.1-2
			C81,44.5,80,43.6,79,43.6c-0.2,0-0.3,0-0.5,0.1l-0.1,0l-0.1-0.1c-1.4-1.2-3-2.5-4.7-2.5c-0.4,0-0.7,0.1-1.1,0.2
			c-1,0.9-2.3,1.6-4,2.3c-0.1,0-0.1,0-0.1,0c-0.3,0-0.5-0.3-0.7-0.4c-0.1-0.1-0.1-0.2-0.2-0.2l-0.2-0.1l0.1-0.2
			c0.4-0.9,1-1.8,1.6-2.7l0.1-0.1l2.3-0.4c0.6-0.3,1-0.8,1.4-1.3c0.4-0.5,0.8-1,1.3-1.3l0.1,0c0.3-0.1,0.6-0.1,0.9-0.1
			c1.2,0,2.4,0.4,3.5,0.8c1.2,0.4,2.5,0.8,3.7,0.8c2-1.5,4.4-1.8,6.5-0.7l0.1,0.1c0,0,0.1,0.1,0.2,0.1c0.2,0.1,0.5,0.3,0.3,0.7
			l-0.1,0.1c-3,2.2-5,6.6-4.9,10.8L84.4,50.1z M79,43.1c1.3,0,2.4,1,2.9,1.6c0.5,0.7,0.8,1.4,1.2,2.1c0.3,0.6,0.6,1.2,0.9,1.7
			c0.2-4,2.1-8.2,5-10.3c0,0-0.1,0-0.1-0.1c-0.1-0.1-0.2-0.1-0.2-0.2c-1.9-1-4.2-0.7-6,0.7l-0.1,0l-0.1,0c-1.4,0.1-2.7-0.4-4-0.8
			c-1.2-0.4-2.3-0.8-3.4-0.8c-0.3,0-0.5,0-0.8,0.1c-0.5,0.3-0.8,0.7-1.1,1.2c-0.4,0.6-0.9,1.1-1.6,1.5l-0.1,0l-2.1,0.3
			c-0.6,0.8-1.1,1.6-1.5,2.4c0,0,0.1,0.1,0.1,0.1c0.1,0.2,0.2,0.2,0.3,0.2c1.7-0.6,3-1.3,3.9-2.2l0.1-0.1c0.4-0.2,0.9-0.3,1.3-0.3
			c1.8,0,3.5,1.3,4.9,2.6C78.7,43.2,78.8,43.1,79,43.1z"/>
	</g>
</g>
</svg>
